/* XPM */
static char * cellwriter_xpm[] = {
"32 32 155 2",
"  	c None",
". 	c #8A9BAA",
"+ 	c #A9B4C1",
"@ 	c #AAB5C1",
"# 	c #ABB6C2",
"$ 	c #909EAE",
"% 	c #9DA9B7",
"& 	c #FFFFFF",
"* 	c #FCFCFC",
"= 	c #FBFBFB",
"- 	c #F9FAFA",
"; 	c #F8F9F9",
"> 	c #F5F6F6",
", 	c #F5F5F5",
"' 	c #EAEAEA",
") 	c #F6F7F7",
"! 	c #F3F4F5",
"~ 	c #C7C7C7",
"{ 	c #EBEBEB",
"] 	c #F1F3F3",
"^ 	c #A1A1A1",
"/ 	c #FDFDFD",
"( 	c #ADADAD",
"_ 	c #373737",
": 	c #5A5A5A",
"< 	c #F2F3F3",
"[ 	c #EEEFEF",
"} 	c #BABABA",
"| 	c #BDBDBD",
"1 	c #EEEEEE",
"2 	c #565656",
"3 	c #000000",
"4 	c #070707",
"5 	c #656565",
"6 	c #F1F2F2",
"7 	c #ECEDED",
"8 	c #F1F1F1",
"9 	c #606060",
"0 	c #222222",
"a 	c #B4B4B4",
"b 	c #FAFAFA",
"c 	c #E9EAEB",
"d 	c #B6B6B6",
"e 	c #D1D1D1",
"f 	c #393939",
"g 	c #FEFEFE",
"h 	c #555555",
"i 	c #131313",
"j 	c #E1E1E1",
"k 	c #E5E7E7",
"l 	c #3C3C3C",
"m 	c #727272",
"n 	c #4F4F4F",
"o 	c #D4D4D4",
"p 	c #BBBBBB",
"q 	c #A6A6A6",
"r 	c #E9EAEA",
"s 	c #E2E4E4",
"t 	c #3B3B3B",
"u 	c #C8C8C8",
"v 	c #6C6C6C",
"w 	c #949494",
"x 	c #3D3D3D",
"y 	c #282828",
"z 	c #E6E8E8",
"A 	c #DEE0E1",
"B 	c #2D2D2D",
"C 	c #F2F2F2",
"D 	c #787878",
"E 	c #8C8C8C",
"F 	c #7C7C7C",
"G 	c #141414",
"H 	c #595959",
"I 	c #E3E5E5",
"J 	c #D9DCDC",
"K 	c #010101",
"L 	c #090909",
"M 	c #ECECEC",
"N 	c #6D6D6D",
"O 	c #333333",
"P 	c #191919",
"Q 	c #2C2C2C",
"R 	c #DDDFDF",
"S 	c #2F2F2F",
"T 	c #7F7F7F",
"U 	c #AEAEAE",
"V 	c #4D4D4D",
"W 	c #1F1F1F",
"X 	c #5B5B5B",
"Y 	c #A5A5A5",
"Z 	c #DFE1E1",
"` 	c #E0E2E2",
" .	c #111111",
"..	c #292929",
"+.	c #0A0A0A",
"@.	c #676767",
"#.	c #121212",
"$.	c #2B2B2B",
"%.	c #DEDEDE",
"&.	c #020202",
"*.	c #737373",
"=.	c #EDEDED",
"-.	c #D8D8D8",
";.	c #E2E2E2",
">.	c #EAECEC",
",.	c #E4E6E6",
"'.	c #030303",
").	c #D9D9D9",
"!.	c #A2A2A2",
"~.	c #9A9A9A",
"{.	c #585858",
"].	c #303030",
"^.	c #0B0B0B",
"/.	c #808080",
"(.	c #7E7E7E",
"_.	c #A3A3A3",
":.	c #EFEFEF",
"<.	c #EDEFEF",
"[.	c #E7E9E9",
"}.	c #181818",
"|.	c #B8B8B8",
"1.	c #4A4A4A",
"2.	c #989898",
"3.	c #EFF0F0",
"4.	c #E9EBEB",
"5.	c #464646",
"6.	c #A9A9A9",
"7.	c #F7F7F7",
"8.	c #7A7A7A",
"9.	c #242424",
"0.	c #6F6F6F",
"a.	c #E7E7E7",
"b.	c #9D9D9D",
"c.	c #F3F4F4",
"d.	c #EFF1F1",
"e.	c #B1BDC8",
"f.	c #EFF4F5",
"g.	c #E7ECED",
"h.	c #E4E9EA",
"i.	c #C0C9D1",
"j.	c #C1CAD4",
"k.	c #E1EAED",
"l.	c #DBE4E7",
"m.	c #DAE2E5",
"n.	c #CED8DE",
"o.	c #DCE6E8",
"p.	c #DDE6E9",
"q.	c #DCE5E8",
"r.	c #DFE7EA",
"s.	c #DDE7E9",
"t.	c #A5B4C0",
"u.	c #C6D0D8",
"v.	c #C6D0D7",
"w.	c #C5CFD7",
"x.	c #AEBBC7",
"                                                                ",
"                                                                ",
"                                                                ",
". + + + + + + + + + + + + + + @ # + + + + + + + + + + + + + + $ ",
"% & & & & & & & & & & & & & & * = & & & & & & & & & & & & & & @ ",
"% & & & & & & & & & & & & & & = - & & & & & & & & & & & & & & @ ",
"% & & & & & & & & & & & & & & - ; & & & & & & & & = & & & & & @ ",
"% & & & & & & & & & & & & & & ; > & & & & & & & & , ' & & & & @ ",
"% & & & & & & & & & & & & & & ) ! & & & & & & & & & ~ & & & & @ ",
"% & & & & & & & & { & & & & & > ] & & & & & & & & & ^ / & & & @ ",
"% & & & & & & ( _ : & & & & & < [ & & & & & & & & & } | & & & @ ",
"% & & & & 1 2 3 4 5 & & & & & 6 7 & & & & & & & & & 8 9 & & & @ ",
"% & & & , _ 0 a b & & & & & & [ c & & d e & & & & & & f g & & @ ",
"% & & & h i j & & & & & & & & 7 k & & l m & & & & & & n o & & @ ",
"% & & p 3 q & & & & & & & & & r s & & t u & & & & & & v w & & @ ",
"% & & x y / & & & & & & & & & z A & & B C & & D E & & F h & & @ ",
"% & & G H & & & & & & & & & & I J & & t & & o K L M & N O & & @ ",
"% & & P Q & & & & & & & & & & k R & & S & & T 3 3 U & V W & & @ ",
"% & & X 3 Y & & & & & & & & C Z ` & &  .b g ..+.3 @.= #.$.& & @ ",
"% & & %. .&.*.=.& & & & & -.;.>.,.& & '.).!.3 ~.4 '.h 3 {.& & @ ",
"% & & & o ].3 ^.X /.w (._.:.& <.[.& & }.$.+.../ @.3 3 3 |.& & @ ",
"% & & & & / a 9 1.9 2.=.& & & 3.4.& & 5.3 K 6.& 7.8.9.0.& & & @ ",
"% & & & & & & & & & & & & & & ] <.& & a.b.j & & & & & & & & & @ ",
"% & & & & & & & & & & & & & & c.d.& & & & & & & & & & & & & & @ ",
"e.f.f.f.f.f.f.f.f.f.f.f.f.f.f.g.h.f.f.f.f.f.f.f.f.f.f.f.f.f.f.i.",
"j.k.k.k.k.k.k.k.k.k.k.k.k.k.k.l.m.k.k.k.k.k.k.k.k.k.k.k.k.k.k.n.",
"j.k.k.k.k.k.k.k.k.k.k.k.k.k.k.o.l.k.k.k.k.k.k.k.k.k.k.k.k.k.k.n.",
"j.k.k.k.k.k.k.k.k.k.k.k.k.k.k.p.q.k.k.k.k.k.k.k.k.k.k.k.k.k.k.n.",
"j.k.k.k.k.k.k.k.k.k.k.k.k.k.k.r.s.k.k.k.k.k.k.k.k.k.k.k.k.k.k.n.",
"t.u.u.u.u.u.u.u.u.u.u.u.u.u.u.v.w.u.u.u.u.u.u.u.u.u.u.u.u.u.u.x.",
"                                                                ",
"                                                                "};
